ffmpeg started on 2025-06-16 at 17:13:51
Report written to "D:\Convert\FFMetrics\reports\psnr_report-6.txt"
Log level: 32
Command line:
ffmpeg -hide_banner -nostdin -i "G:\\\xc0\xed\xe8\xec\xe5\\[\xd2\xee\xef]\\\xd0\xfb\xf6\xe0\xf0\xfc-\xe2\xe0\xec\xef\xe8\xf0\\\xd2\xc2-2\\[JamClub] Vampire Knight Guilty - 12_HEVC.mkv" -i "G:\\\xc0\xed\xe8\xec\xe5\\[\xd2\xee\xef]\\\xd0\xfb\xf6\xe0\xf0\xfc-\xe2\xe0\xec\xef\xe8\xf0\\\xd2\xc2-2\\[JamClub] Vampire Knight Guilty - 12.mp4" -lavfi "[0:v]settb=AVTB,setpts=PTS-STARTPTS,format=pix_fmts=yuv420p10,fps=24000/1001,scale=1920:1080:flags=bicubic[main];[1:v]settb=AVTB,setpts=PTS-STARTPTS,format=pix_fmts=yuv420p,fps=24000/1001,scale=1920:1080:flags=bicubic[ref];[main][ref]psnr=eof_action=endall:stats_file='D\\:/Convert/FFMetrics/logs/psnr_logfile-6.txt'" -f null -
Input #0, matroska,webm, from 'G:\Аниме\[Топ]\Рыцарь-вампир\ТВ-2\[JamClub] Vampire Knight Guilty - 12_HEVC.mkv':
  Metadata:
    COMPATIBLE_BRANDS: isomiso2avc1mp41
    MAJOR_BRAND     : isom
    MINOR_VERSION   : 512
    ENCODER         : Lavf61.7.100
  Duration: 00:24:23.18, start: -0.001000, bitrate: 1174 kb/s
  Stream #0:0: Video: hevc (Main 10), yuv420p10le(tv, bt709, progressive), 1920x1080 [SAR 1:1 DAR 16:9], 23.98 fps, 23.98 tbr, 1k tbn (default)
      Metadata:
        HANDLER_NAME    : VideoHandler
        VENDOR_ID       : [0][0][0][0]
        ENCODER         : Lavc61.19.100 libx265
        BPS             : 975631
        DURATION        : 00:24:23.086708333
        NUMBER_OF_FRAMES: 43716
        NUMBER_OF_BYTES : 178429072
        _STATISTICS_WRITING_APP: mkvpropedit v66.0.0 ('Josie') 64-bit
        _STATISTICS_WRITING_DATE_UTC: 2025-06-16 12:42:51
        _STATISTICS_TAGS: BPS DURATION NUMBER_OF_FRAMES NUMBER_OF_BYTES
  Stream #0:1(eng): Audio: aac (LC), 48000 Hz, stereo, fltp (default)
      Metadata:
        HANDLER_NAME    : SoundHandler
        VENDOR_ID       : [0][0][0][0]
        ENCODER         : Lavc61.19.100 aac
        BPS             : 194929
        DURATION        : 00:24:23.141000000
        NUMBER_OF_FRAMES: 68586
        NUMBER_OF_BYTES : 35651218
        _STATISTICS_WRITING_APP: mkvpropedit v66.0.0 ('Josie') 64-bit
        _STATISTICS_WRITING_DATE_UTC: 2025-06-16 12:42:51
        _STATISTICS_TAGS: BPS DURATION NUMBER_OF_FRAMES NUMBER_OF_BYTES
Input #1, mov,mp4,m4a,3gp,3g2,mj2, from 'G:\Аниме\[Топ]\Рыцарь-вампир\ТВ-2\[JamClub] Vampire Knight Guilty - 12.mp4':
  Metadata:
    major_brand     : isom
    minor_version   : 512
    compatible_brands: isomiso2avc1mp41
    encoder         : Lavf60.16.100
  Duration: 00:24:23.16, start: 0.000000, bitrate: 4187 kb/s
  Stream #1:0[0x1](und): Video: h264 (High) (avc1 / 0x31637661), yuv420p(progressive), 1920x1080 [SAR 1:1 DAR 16:9], 3986 kb/s, 29.88 fps, 23.98 tbr, 90k tbn (default)
      Metadata:
        handler_name    : VideoHandler
        vendor_id       : [0][0][0][0]
  Stream #1:1[0x2](eng): Audio: aac (LC) (mp4a / 0x6134706D), 48000 Hz, stereo, fltp, 191 kb/s (default)
      Metadata:
        handler_name    : SoundHandler
        vendor_id       : [0][0][0][0]
Stream mapping:
  Stream #0:0 (hevc) -> settb:default
  Stream #1:0 (h264) -> settb:default
  psnr:default -> Stream #0:0 (wrapped_avframe)
  Stream #0:1 -> #0:1 (aac (native) -> pcm_s16le (native))
Output #0, null, to 'pipe:':
  Metadata:
    COMPATIBLE_BRANDS: isomiso2avc1mp41
    MAJOR_BRAND     : isom
    MINOR_VERSION   : 512
    encoder         : Lavf61.7.100
  Stream #0:0: Video: wrapped_avframe, yuv420p10le(tv, bt709, progressive), 1920x1080 [SAR 1:1 DAR 16:9], q=2-31, 200 kb/s, 23.98 fps, 23.98 tbn
      Metadata:
        encoder         : Lavc61.19.100 wrapped_avframe
  Stream #0:1(eng): Audio: pcm_s16le, 48000 Hz, stereo, s16, 1536 kb/s (default)
      Metadata:
        HANDLER_NAME    : SoundHandler
        VENDOR_ID       : [0][0][0][0]
        _STATISTICS_TAGS: BPS DURATION NUMBER_OF_FRAMES NUMBER_OF_BYTES
        BPS             : 194929
        DURATION        : 00:24:23.141000000
        NUMBER_OF_FRAMES: 68586
        NUMBER_OF_BYTES : 35651218
        _STATISTICS_WRITING_APP: mkvpropedit v66.0.0 ('Josie') 64-bit
        _STATISTICS_WRITING_DATE_UTC: 2025-06-16 12:42:51
        encoder         : Lavc61.19.100 pcm_s16le
frame=  113 fps=0.0 q=-0.0 size=N/A time=00:00:04.71 bitrate=N/A speed=9.08x    frame=  279 fps=271 q=-0.0 size=N/A time=00:00:11.63 bitrate=N/A speed=11.3x    frame=  493 fps=317 q=-0.0 size=N/A time=00:00:20.56 bitrate=N/A speed=13.2x    frame=  713 fps=345 q=-0.0 size=N/A time=00:00:29.73 bitrate=N/A speed=14.4x    frame=  929 fps=360 q=-0.0 size=N/A time=00:00:38.74 bitrate=N/A speed=  15x    frame= 1167 fps=376 q=-0.0 size=N/A time=00:00:48.67 bitrate=N/A speed=15.7x    frame= 1394 fps=385 q=-0.0 size=N/A time=00:00:58.14 bitrate=N/A speed=16.1x    frame= 1630 fps=395 q=-0.0 size=N/A time=00:01:07.98 bitrate=N/A speed=16.5x    frame= 1843 fps=397 q=-0.0 size=N/A time=00:01:16.86 bitrate=N/A speed=16.6x    frame= 2065 fps=400 q=-0.0 size=N/A time=00:01:26.12 bitrate=N/A speed=16.7x    frame= 2279 fps=402 q=-0.0 size=N/A time=00:01:35.05 bitrate=N/A speed=16.8x    frame= 2485 fps=401 q=-0.0 size=N/A time=00:01:43.64 bitrate=N/A speed=16.7x    frame= 2678 fps=399 q=-0.0 size=N/A time=00:01:51.69 bitrate=N/A speed=16.7x    frame= 2881 fps=398 q=-0.0 size=N/A time=00:02:00.16 bitrate=N/A speed=16.6x    frame= 3112 fps=401 q=-0.0 size=N/A time=00:02:09.79 bitrate=N/A speed=16.7x    frame= 3322 fps=402 q=-0.0 size=N/A time=00:02:18.55 bitrate=N/A speed=16.8x    frame= 3527 fps=402 q=-0.0 size=N/A time=00:02:27.10 bitrate=N/A speed=16.8x    frame= 3689 fps=396 q=-0.0 size=N/A time=00:02:33.86 bitrate=N/A speed=16.5x    frame= 3886 fps=396 q=-0.0 size=N/A time=00:02:42.07 bitrate=N/A speed=16.5x    frame= 4113 fps=398 q=-0.0 size=N/A time=00:02:51.54 bitrate=N/A speed=16.6x    frame= 4320 fps=398 q=-0.0 size=N/A time=00:03:00.18 bitrate=N/A speed=16.6x    frame= 4523 fps=398 q=-0.0 size=N/A time=00:03:08.64 bitrate=N/A speed=16.6x    frame= 4745 fps=400 q=-0.0 size=N/A time=00:03:17.90 bitrate=N/A speed=16.7x    frame= 4954 fps=400 q=-0.0 size=N/A time=00:03:26.62 bitrate=N/A speed=16.7x    frame= 5174 fps=401 q=-0.0 size=N/A time=00:03:35.79 bitrate=N/A speed=16.7x    frame= 5427 fps=404 q=-0.0 size=N/A time=00:03:46.35 bitrate=N/A speed=16.9x    frame= 5660 fps=406 q=-0.0 size=N/A time=00:03:56.06 bitrate=N/A speed=16.9x    frame= 5902 fps=408 q=-0.0 size=N/A time=00:04:06.16 bitrate=N/A speed=  17x    frame= 6105 fps=408 q=-0.0 size=N/A time=00:04:14.62 bitrate=N/A speed=  17x    frame= 6346 fps=410 q=-0.0 size=N/A time=00:04:24.68 bitrate=N/A speed=17.1x    frame= 6585 fps=411 q=-0.0 size=N/A time=00:04:34.64 bitrate=N/A speed=17.2x    frame= 6793 fps=411 q=-0.0 size=N/A time=00:04:43.32 bitrate=N/A speed=17.2x    frame= 6978 fps=410 q=-0.0 size=N/A time=00:04:51.04 bitrate=N/A speed=17.1x    frame= 7203 fps=410 q=-0.0 size=N/A time=00:05:00.42 bitrate=N/A speed=17.1x    frame= 7425 fps=411 q=-0.0 size=N/A time=00:05:09.68 bitrate=N/A speed=17.1x    frame= 7655 fps=412 q=-0.0 size=N/A time=00:05:19.27 bitrate=N/A speed=17.2x    frame= 7876 fps=412 q=-0.0 size=N/A time=00:05:28.49 bitrate=N/A speed=17.2x    frame= 8104 fps=413 q=-0.0 size=N/A time=00:05:38.00 bitrate=N/A speed=17.2x    frame= 8324 fps=413 q=-0.0 size=N/A time=00:05:47.18 bitrate=N/A speed=17.2x    frame= 8544 fps=414 q=-0.0 size=N/A time=00:05:56.35 bitrate=N/A speed=17.3x    frame= 8765 fps=414 q=-0.0 size=N/A time=00:06:05.57 bitrate=N/A speed=17.3x    frame= 8997 fps=415 q=-0.0 size=N/A time=00:06:15.24 bitrate=N/A speed=17.3x    frame= 9207 fps=415 q=-0.0 size=N/A time=00:06:24.00 bitrate=N/A speed=17.3x    frame= 9425 fps=415 q=-0.0 size=N/A time=00:06:33.10 bitrate=N/A speed=17.3x    frame= 9616 fps=414 q=-0.0 size=N/A time=00:06:41.06 bitrate=N/A speed=17.3x    frame= 9812 fps=413 q=-0.0 size=N/A time=00:06:49.24 bitrate=N/A speed=17.2x    frame=10029 fps=413 q=-0.0 size=N/A time=00:06:58.29 bitrate=N/A speed=17.2x    frame=10235 fps=413 q=-0.0 size=N/A time=00:07:06.88 bitrate=N/A speed=17.2x    frame=10452 fps=413 q=-0.0 size=N/A time=00:07:15.93 bitrate=N/A speed=17.2x    frame=10684 fps=414 q=-0.0 size=N/A time=00:07:25.61 bitrate=N/A speed=17.3x    frame=10897 fps=414 q=-0.0 size=N/A time=00:07:34.49 bitrate=N/A speed=17.3x    frame=11103 fps=414 q=-0.0 size=N/A time=00:07:43.08 bitrate=N/A speed=17.3x    frame=11320 fps=414 q=-0.0 size=N/A time=00:07:52.13 bitrate=N/A speed=17.3x    frame=11552 fps=415 q=-0.0 size=N/A time=00:08:01.81 bitrate=N/A speed=17.3x    frame=11745 fps=414 q=-0.0 size=N/A time=00:08:09.86 bitrate=N/A speed=17.3x    frame=11980 fps=415 q=-0.0 size=N/A time=00:08:19.66 bitrate=N/A speed=17.3x    frame=12216 fps=415 q=-0.0 size=N/A time=00:08:29.50 bitrate=N/A speed=17.3x    frame=12437 fps=416 q=-0.0 size=N/A time=00:08:38.72 bitrate=N/A speed=17.3x    frame=12667 fps=416 q=-0.0 size=N/A time=00:08:48.31 bitrate=N/A speed=17.4x    frame=12913 fps=417 q=-0.0 size=N/A time=00:08:58.57 bitrate=N/A speed=17.4x    frame=13151 fps=418 q=-0.0 size=N/A time=00:09:08.50 bitrate=N/A speed=17.4x    frame=13399 fps=419 q=-0.0 size=N/A time=00:09:18.84 bitrate=N/A speed=17.5x    frame=13641 fps=420 q=-0.0 size=N/A time=00:09:28.94 bitrate=N/A speed=17.5x    frame=13891 fps=421 q=-0.0 size=N/A time=00:09:39.37 bitrate=N/A speed=17.5x    frame=14129 fps=421 q=-0.0 size=N/A time=00:09:49.29 bitrate=N/A speed=17.6x    frame=14360 fps=422 q=-0.0 size=N/A time=00:09:58.93 bitrate=N/A speed=17.6x    frame=14589 fps=422 q=-0.0 size=N/A time=00:10:08.48 bitrate=N/A speed=17.6x    frame=14826 fps=423 q=-0.0 size=N/A time=00:10:18.36 bitrate=N/A speed=17.6x    frame=15060 fps=423 q=-0.0 size=N/A time=00:10:28.12 bitrate=N/A speed=17.6x    frame=15279 fps=423 q=-0.0 size=N/A time=00:10:37.26 bitrate=N/A speed=17.6x    frame=15503 fps=423 q=-0.0 size=N/A time=00:10:46.60 bitrate=N/A speed=17.6x    frame=15731 fps=423 q=-0.0 size=N/A time=00:10:56.11 bitrate=N/A speed=17.7x    frame=15941 fps=423 q=-0.0 size=N/A time=00:11:04.87 bitrate=N/A speed=17.7x    frame=16162 fps=423 q=-0.0 size=N/A time=00:11:14.09 bitrate=N/A speed=17.7x    frame=16402 fps=424 q=-0.0 size=N/A time=00:11:24.10 bitrate=N/A speed=17.7x    frame=16621 fps=424 q=-0.0 size=N/A time=00:11:33.23 bitrate=N/A speed=17.7x    frame=16853 fps=424 q=-0.0 size=N/A time=00:11:42.91 bitrate=N/A speed=17.7x    frame=17100 fps=425 q=-0.0 size=N/A time=00:11:53.21 bitrate=N/A speed=17.7x    frame=17336 fps=425 q=-0.0 size=N/A time=00:12:03.05 bitrate=N/A speed=17.7x    frame=17564 fps=425 q=-0.0 size=N/A time=00:12:12.56 bitrate=N/A speed=17.7x    frame=17767 fps=425 q=-0.0 size=N/A time=00:12:21.03 bitrate=N/A speed=17.7x    frame=17982 fps=425 q=-0.0 size=N/A time=00:12:29.99 bitrate=N/A speed=17.7x    frame=18207 fps=425 q=-0.0 size=N/A time=00:12:39.38 bitrate=N/A speed=17.7x    frame=18429 fps=425 q=-0.0 size=N/A time=00:12:48.64 bitrate=N/A speed=17.7x    frame=18649 fps=425 q=-0.0 size=N/A time=00:12:57.81 bitrate=N/A speed=17.7x    frame=18873 fps=425 q=-0.0 size=N/A time=00:13:07.16 bitrate=N/A speed=17.7x    frame=19082 fps=425 q=-0.0 size=N/A time=00:13:15.87 bitrate=N/A speed=17.7x    frame=19273 fps=424 q=-0.0 size=N/A time=00:13:23.84 bitrate=N/A speed=17.7x    frame=19461 fps=424 q=-0.0 size=N/A time=00:13:31.68 bitrate=N/A speed=17.7x    frame=19668 fps=424 q=-0.0 size=N/A time=00:13:40.31 bitrate=N/A speed=17.7x    frame=19875 fps=423 q=-0.0 size=N/A time=00:13:48.95 bitrate=N/A speed=17.7x    frame=20120 fps=424 q=-0.0 size=N/A time=00:13:59.17 bitrate=N/A speed=17.7x    frame=20326 fps=424 q=-0.0 size=N/A time=00:14:07.76 bitrate=N/A speed=17.7x    frame=20552 fps=424 q=-0.0 size=N/A time=00:14:17.18 bitrate=N/A speed=17.7x    frame=20764 fps=424 q=-0.0 size=N/A time=00:14:26.03 bitrate=N/A speed=17.7x    frame=20965 fps=423 q=-0.0 size=N/A time=00:14:34.41 bitrate=N/A speed=17.7x    frame=21192 fps=423 q=-0.0 size=N/A time=00:14:43.88 bitrate=N/A speed=17.7x    frame=21436 fps=424 q=-0.0 size=N/A time=00:14:54.05 bitrate=N/A speed=17.7x    frame=21657 fps=424 q=-0.0 size=N/A time=00:15:03.27 bitrate=N/A speed=17.7x    frame=21896 fps=424 q=-0.0 size=N/A time=00:15:13.24 bitrate=N/A speed=17.7x    frame=22132 fps=425 q=-0.0 size=N/A time=00:15:23.08 bitrate=N/A speed=17.7x    frame=22363 fps=425 q=-0.0 size=N/A time=00:15:32.72 bitrate=N/A speed=17.7x    frame=22583 fps=425 q=-0.0 size=N/A time=00:15:41.89 bitrate=N/A speed=17.7x    frame=22824 fps=425 q=-0.0 size=N/A time=00:15:51.95 bitrate=N/A speed=17.7x    frame=23065 fps=426 q=-0.0 size=N/A time=00:16:02.00 bitrate=N/A speed=17.8x    frame=23306 fps=426 q=-0.0 size=N/A time=00:16:12.05 bitrate=N/A speed=17.8x    frame=23561 fps=427 q=-0.0 size=N/A time=00:16:22.69 bitrate=N/A speed=17.8x    frame=23797 fps=427 q=-0.0 size=N/A time=00:16:32.53 bitrate=N/A speed=17.8x    frame=24020 fps=427 q=-0.0 size=N/A time=00:16:41.83 bitrate=N/A speed=17.8x    frame=24233 fps=427 q=-0.0 size=N/A time=00:16:50.71 bitrate=N/A speed=17.8x    frame=24471 fps=427 q=-0.0 size=N/A time=00:17:00.64 bitrate=N/A speed=17.8x    frame=24696 fps=427 q=-0.0 size=N/A time=00:17:10.02 bitrate=N/A speed=17.8x    frame=24940 fps=428 q=-0.0 size=N/A time=00:17:20.20 bitrate=N/A speed=17.8x    frame=25172 fps=428 q=-0.0 size=N/A time=00:17:29.88 bitrate=N/A speed=17.9x    frame=25406 fps=428 q=-0.0 size=N/A time=00:17:39.64 bitrate=N/A speed=17.9x    frame=25652 fps=429 q=-0.0 size=N/A time=00:17:49.90 bitrate=N/A speed=17.9x    frame=25882 fps=429 q=-0.0 size=N/A time=00:17:59.49 bitrate=N/A speed=17.9x    frame=26112 fps=429 q=-0.0 size=N/A time=00:18:09.08 bitrate=N/A speed=17.9x    frame=26356 fps=429 q=-0.0 size=N/A time=00:18:19.26 bitrate=N/A speed=17.9x    frame=26577 fps=429 q=-0.0 size=N/A time=00:18:28.48 bitrate=N/A speed=17.9x    frame=26797 fps=429 q=-0.0 size=N/A time=00:18:37.65 bitrate=N/A speed=17.9x    frame=27012 fps=429 q=-0.0 size=N/A time=00:18:46.62 bitrate=N/A speed=17.9x    frame=27219 fps=429 q=-0.0 size=N/A time=00:18:55.25 bitrate=N/A speed=17.9x    frame=27417 fps=429 q=-0.0 size=N/A time=00:19:03.51 bitrate=N/A speed=17.9x    frame=27637 fps=429 q=-0.0 size=N/A time=00:19:12.69 bitrate=N/A speed=17.9x    frame=27834 fps=428 q=-0.0 size=N/A time=00:19:20.90 bitrate=N/A speed=17.9x    frame=28056 fps=428 q=-0.0 size=N/A time=00:19:30.16 bitrate=N/A speed=17.9x    frame=28291 fps=428 q=-0.0 size=N/A time=00:19:39.97 bitrate=N/A speed=17.9x    frame=28511 fps=428 q=-0.0 size=N/A time=00:19:49.14 bitrate=N/A speed=17.9x    frame=28748 fps=428 q=-0.0 size=N/A time=00:19:59.03 bitrate=N/A speed=17.9x    frame=28945 fps=428 q=-0.0 size=N/A time=00:20:07.24 bitrate=N/A speed=17.9x    frame=29149 fps=428 q=-0.0 size=N/A time=00:20:15.75 bitrate=N/A speed=17.9x    frame=29370 fps=428 q=-0.0 size=N/A time=00:20:24.97 bitrate=N/A speed=17.8x    frame=29605 fps=428 q=-0.0 size=N/A time=00:20:34.77 bitrate=N/A speed=17.9x    frame=29817 fps=428 q=-0.0 size=N/A time=00:20:43.61 bitrate=N/A speed=17.9x    frame=30062 fps=428 q=-0.0 size=N/A time=00:20:53.83 bitrate=N/A speed=17.9x    frame=30305 fps=429 q=-0.0 size=N/A time=00:21:03.97 bitrate=N/A speed=17.9x    frame=30530 fps=429 q=-0.0 size=N/A time=00:21:13.35 bitrate=N/A speed=17.9x    frame=30765 fps=429 q=-0.0 size=N/A time=00:21:23.15 bitrate=N/A speed=17.9x    frame=30980 fps=429 q=-0.0 size=N/A time=00:21:32.12 bitrate=N/A speed=17.9x    frame=31201 fps=429 q=-0.0 size=N/A time=00:21:41.34 bitrate=N/A speed=17.9x    frame=31444 fps=429 q=-0.0 size=N/A time=00:21:51.47 bitrate=N/A speed=17.9x    frame=31682 fps=429 q=-0.0 size=N/A time=00:22:01.40 bitrate=N/A speed=17.9x    frame=31922 fps=430 q=-0.0 size=N/A time=00:22:11.41 bitrate=N/A speed=17.9x    frame=32151 fps=430 q=-0.0 size=N/A time=00:22:20.96 bitrate=N/A speed=17.9x    frame=32379 fps=430 q=-0.0 size=N/A time=00:22:30.47 bitrate=N/A speed=17.9x    frame=32604 fps=430 q=-0.0 size=N/A time=00:22:39.85 bitrate=N/A speed=17.9x    frame=32829 fps=430 q=-0.0 size=N/A time=00:22:49.24 bitrate=N/A speed=17.9x    frame=33045 fps=430 q=-0.0 size=N/A time=00:22:58.25 bitrate=N/A speed=17.9x    frame=33255 fps=430 q=-0.0 size=N/A time=00:23:07.01 bitrate=N/A speed=17.9x    frame=33449 fps=429 q=-0.0 size=N/A time=00:23:15.10 bitrate=N/A speed=17.9x    frame=33650 fps=429 q=-0.0 size=N/A time=00:23:23.48 bitrate=N/A speed=17.9x    frame=33866 fps=429 q=-0.0 size=N/A time=00:23:32.49 bitrate=N/A speed=17.9x    frame=34077 fps=429 q=-0.0 size=N/A time=00:23:41.29 bitrate=N/A speed=17.9x    frame=34296 fps=429 q=-0.0 size=N/A time=00:23:50.42 bitrate=N/A speed=17.9x    frame=34511 fps=429 q=-0.0 size=N/A time=00:23:59.39 bitrate=N/A speed=17.9x    frame=34705 fps=428 q=-0.0 size=N/A time=00:24:07.48 bitrate=N/A speed=17.9x    frame=34909 fps=428 q=-0.0 size=N/A time=00:24:15.99 bitrate=N/A speed=17.9x    [Parsed_psnr_10 @ 000001c3788e1600] PSNR y:49.529636 u:51.814314 v:52.221287 average:50.210830 min:31.826007 max:inf
[out#0/null @ 000001c37319f200] video:15073KiB audio:274344KiB subtitle:0KiB other streams:0KiB global headers:0KiB muxing overhead: unknown
frame=35079 fps=429 q=-0.0 Lsize=N/A time=00:24:23.08 bitrate=N/A speed=17.9x    
